<svg class="img-fluid" id="outputsvg" xmlns="http://www.w3.org/2000/svg" style="transform: matrix(1, 0, 0, 1, 0, 0); transform-origin: 50% 50%; cursor: move; max-height: 365.62px; transition: transform 200ms ease-in-out;" width="470" height="228" viewBox="0 0 4700 2280"><g id="l5mvw0r9XYOKYC3wdsVOTlm" fill="rgb(151,151,151)" style="transform: none; transform-origin: 50% 50%;"><g style="transform: none;"><path id="pvV8WGhte" d="M1722 2267 c2 -8 192 -521 423 -1141 l420 -1126 212 0 213 0 -27 73 c-15 39 -206 551 -424 1137 l-397 1065 -212 3 c-176 2 -211 0 -208 -11z"></path></g></g><g id="l3VSIXAAlCrAeGuo3IBxTGA" fill="rgb(245,243,255)" style="transform: none; transform-origin: 50% 50%;"><g style="transform: none;"><path id="pqSprA8wN" d="M770 1620 l-765 -339 -3 -113 -3 -113 776 -387 775 -388 0 188 0 187 -530 244 c-292 135 -530 247 -530 251 0 3 201 88 448 189 246 101 484 200 530 219 l82 34 0 184 c0 101 -3 184 -7 183 -5 0 -352 -153 -773 -339z"></path><path id="pflwTRz8X" d="M3150 1776 l0 -184 83 -34 c45 -19 283 -118 530 -219 246 -101 447 -186 447 -189 0 -4 -238 -116 -530 -251 l-530 -244 0 -187 0 -188 775 388 776 387 -3 113 -3 113 -769 340 c-423 186 -771 339 -773 339 -2 0 -3 -83 -3 -184z"></path></g></g></svg>